# xmcd
#
# Track frame offsets:
#	150
#	16212
#	30804
#	40258
#	53175
#	68480
#	83732
#	98864
#	115846
#	130743
#	142015
#	157344
#	169911
#	184768
#
# Disc length: 2589 seconds
#
# Revision: 1
# Processed by: cddbd v1.5.2PL0 Copyright (c) Steve Scherf et al.
# Submitted via: EasyCDDAExtractor 16.0.1.1
#
DISCID=b30a1b0e
DTITLE=Johnny Bond - That Wild  Wicked But Wonderful West
DYEAR=1961
DGENRE=Country
TTITLE0=The Pass
TTITLE1=The Fools Paradise
TTITLE2=The Bully
TTITLE3=High Noon
TTITLE4=At Dawn I Die
TTITLE5=Empty Saddles
TTITLE6=Conversation With A Gun
TTITLE7=Sadie Was A Lady
TTITLE8=Wonders Of The Wastland
TTITLE9=The Long Tall Shadow
TTITLE10=The Deadwood Stage
TTITLE11=Carry Me Back To The Lone Prairie
TTITLE12=Dusty Skies
TTITLE13=Belle Starr
EXTD=
EXTT0=
EXTT1=
EXTT2=
EXTT3=
EXTT4=
EXTT5=
EXTT6=
EXTT7=
EXTT8=
EXTT9=
EXTT10=
EXTT11=
EXTT12=
EXTT13=
PLAYORDER=
